<svg xmlns="http://www.w3.org/2000/svg" width="30" height="57" viewBox="0 0 30 57"><path fill="#d2e5ef" d="M.152 27.928L28.248.149a.556.556 0 0 1 .78 0 .541.541 0 0 1 0 .772L1.29 28.345 29.322 56.06a.542.542 0 0 1 0 .773.557.557 0 0 1-.782 0L.393 29.005a.543.543 0 0 1-.137-.225.54.54 0 0 1-.104-.852z"/><path fill="#fff" d="M.152 27.928L28.248.149a.556.556 0 0 1 .78 0 .541.541 0 0 1 0 .772L1.29 28.345 29.322 56.06a.542.542 0 0 1 0 .773.557.557 0 0 1-.782 0L.393 29.005a.543.543 0 0 1-.137-.225.54.54 0 0 1-.104-.852z"/></svg>