<svg xmlns="http://www.w3.org/2000/svg" width="30" height="57" viewBox="0 0 30 57"><g><g opacity="-1"><path fill="#d2e5ef" d="M29.823 28.7a.553.553 0 0 1-.105.08.543.543 0 0 1-.137.225L1.435 56.832a.557.557 0 0 1-.782 0 .543.543 0 0 1 0-.773l28.031-27.714L.946.921a.541.541 0 0 1 0-.772.556.556 0 0 1 .78 0l28.097 27.779a.541.541 0 0 1 0 .771z"/><path fill="#fff" d="M29.823 28.7a.553.553 0 0 1-.105.08.543.543 0 0 1-.137.225L1.435 56.832a.557.557 0 0 1-.782 0 .543.543 0 0 1 0-.773l28.031-27.714L.946.921a.541.541 0 0 1 0-.772.556.556 0 0 1 .78 0l28.097 27.779a.541.541 0 0 1 0 .771z"/></g></g></svg>