<svg width="0" height="0" class="hidden">
  <symbol xmlns="http://www.w3.org/2000/svg" viewBox="0 0 13 8" id="info_btn-arrow">
    <g fill="currentColor">
      <path d="M.006.443L.447.005 6.59 6.09 12.537.2l.457.453-6.402 6.342-.457-.453.013-.013zm0 1l.441-.438L6.59 7.09l5.947-5.89.457.453-6.402 6.341-.457-.452.013-.013z"></path>
      <path d="M.006.443L.447.005 6.59 6.09 12.537.2l.457.453-6.402 6.342-.457-.453.013-.013zm0 1l.441-.438L6.59 7.09l5.947-5.89.457.453-6.402 6.341-.457-.452.013-.013z"></path>
    </g>
  </symbol>
  <symbol xmlns="http://www.w3.org/2000/svg" viewBox="0 0 30 57" id="header_arow_left">
    <path fill="#d2e5ef" d="M.152 27.928L28.248.149a.556.556 0 0 1 .78 0 .541.541 0 0 1 0 .772L1.29 28.345 29.322 56.06a.542.542 0 0 1 0 .773.557.557 0 0 1-.782 0L.393 29.005a.543.543 0 0 1-.137-.225.54.54 0 0 1-.104-.852z"></path>
    <path fill="#fff" d="M.152 27.928L28.248.149a.556.556 0 0 1 .78 0 .541.541 0 0 1 0 .772L1.29 28.345 29.322 56.06a.542.542 0 0 1 0 .773.557.557 0 0 1-.782 0L.393 29.005a.543.543 0 0 1-.137-.225.54.54 0 0 1-.104-.852z"></path>
  </symbol>
  <symbol xmlns="http://www.w3.org/2000/svg" viewBox="0 0 30 57" id="header_arow_right">
    <g opacity="-1">
      <path fill="#d2e5ef" d="M29.823 28.7a.553.553 0 0 1-.105.08.543.543 0 0 1-.137.225L1.435 56.832a.557.557 0 0 1-.782 0 .543.543 0 0 1 0-.773l28.031-27.714L.946.921a.541.541 0 0 1 0-.772.556.556 0 0 1 .78 0l28.097 27.779a.541.541 0 0 1 0 .771z"></path>
      <path fill="#fff" d="M29.823 28.7a.553.553 0 0 1-.105.08.543.543 0 0 1-.137.225L1.435 56.832a.557.557 0 0 1-.782 0 .543.543 0 0 1 0-.773l28.031-27.714L.946.921a.541.541 0 0 1 0-.772.556.556 0 0 1 .78 0l28.097 27.779a.541.541 0 0 1 0 .771z"></path>
    </g>
  </symbol>
</svg>